<svg width="139" height="53" viewBox="0 0 139 53" fill="none" xmlns="http://www.w3.org/2000/svg">
<path d="M0.9 44.8H1C1.09333 44.8 1.18 44.76 1.26 44.68C1.34 44.6 1.40667 44.5067 1.46 44.4C1.52667 44.2933 1.57333 44.18 1.6 44.06C1.62667 43.9267 1.64 43.8067 1.64 43.7V33.06C1.64 32.9667 1.62667 32.86 1.6 32.74C1.57333 32.62 1.52667 32.5067 1.46 32.4C1.40667 32.28 1.33333 32.1867 1.24 32.12C1.16 32.04 1.06667 32 0.96 32H0.86V31.8H4.14C5.38 31.8 6.34667 32.0733 7.04 32.62C7.74667 33.1667 8.1 33.8933 8.1 34.8C8.1 35.1867 8.03333 35.5333 7.9 35.84C7.76667 36.1467 7.59333 36.42 7.38 36.66C7.18 36.9 6.96 37.1067 6.72 37.28C6.48 37.44 6.25333 37.5733 6.04 37.68C6.6 37.7867 7.06667 37.9667 7.44 38.22C7.81333 38.4733 8.11333 38.7667 8.34 39.1C8.58 39.42 8.74667 39.7667 8.84 40.14C8.93333 40.5133 8.98 40.88 8.98 41.24C8.98 41.9333 8.85333 42.52 8.6 43C8.34667 43.4667 8.00667 43.8533 7.58 44.16C7.16667 44.4533 6.68667 44.6667 6.14 44.8C5.60667 44.9333 5.05333 45 4.48 45H0.9V44.8ZM7.62 41.36C7.51333 40.3333 7.16667 39.54 6.58 38.98C5.99333 38.42 5.16667 38.14 4.1 38.14H2.98V44.34H4.14C5.22 44.34 6.06667 44.1 6.68 43.62C7.30667 43.1267 7.62 42.4467 7.62 41.58V41.36ZM6.8 34.98C6.76 34.2067 6.48667 33.5933 5.98 33.14C5.48667 32.6867 4.82 32.46 3.98 32.46H2.98V37.5H4.02C4.58 37.5 5.03333 37.4267 5.38 37.28C5.74 37.1333 6.02667 36.9467 6.24 36.72C6.45333 36.48 6.6 36.22 6.68 35.94C6.76 35.66 6.8 35.3867 6.8 35.12V34.98ZM11.8852 44.8H11.9852C12.0918 44.8 12.1852 44.7667 12.2652 44.7C12.3452 44.62 12.4118 44.5267 12.4652 44.42C12.5318 44.3133 12.5785 44.2 12.6052 44.08C12.6452 43.96 12.6652 43.8467 12.6652 43.74V33.04C12.6652 32.9467 12.6452 32.84 12.6052 32.72C12.5785 32.6 12.5318 32.4867 12.4652 32.38C12.4118 32.2733 12.3452 32.1867 12.2652 32.12C12.1852 32.04 12.0918 32 11.9852 32H11.8852V31.8H19.5852V33.66H19.3852C19.3585 33.3533 19.2385 33.0867 19.0252 32.86C18.8118 32.62 18.4785 32.5 18.0252 32.5H14.0052V37.56H17.3252C17.6318 37.56 17.8852 37.4667 18.0852 37.28C18.2985 37.0933 18.4052 36.8733 18.4052 36.62H18.6052V39.12H18.4052C18.4052 38.88 18.3052 38.6733 18.1052 38.5C17.9052 38.3267 17.6452 38.24 17.3252 38.24H14.0052V44.3H18.3852C18.6385 44.3 18.8585 44.24 19.0452 44.12C19.2318 44 19.3852 43.86 19.5052 43.7C19.6385 43.5267 19.7318 43.3467 19.7852 43.16C19.8518 42.96 19.8852 42.7933 19.8852 42.66H20.0852V45H11.8852V44.8ZM29.1681 32.32C28.1815 32.32 27.3215 32.5 26.5881 32.86C25.8681 33.2067 25.2681 33.6667 24.7881 34.24C24.3081 34.8 23.9481 35.4333 23.7081 36.14C23.4815 36.8467 23.3681 37.5467 23.3681 38.24C23.3681 39.0267 23.5215 39.8 23.8281 40.56C24.1348 41.3067 24.5548 41.9733 25.0881 42.56C25.6348 43.1333 26.2681 43.6 26.9881 43.96C27.7081 44.3067 28.4881 44.48 29.3281 44.48C29.5681 44.48 29.8481 44.4533 30.1681 44.4C30.5015 44.3467 30.8281 44.2467 31.1481 44.1C31.4681 43.94 31.7615 43.72 32.0281 43.44C32.3081 43.16 32.5215 42.7933 32.6681 42.34H32.8681V44.56C32.6681 44.56 32.4548 44.5867 32.2281 44.64C32.0148 44.6933 31.7748 44.7533 31.5081 44.82C31.1615 44.9133 30.7748 45 30.3481 45.08C29.9348 45.16 29.4948 45.2 29.0281 45.2C27.8681 45.2 26.8481 45 25.9681 44.6C25.0881 44.2 24.3548 43.68 23.7681 43.04C23.1815 42.4 22.7415 41.68 22.4481 40.88C22.1548 40.0667 22.0081 39.2467 22.0081 38.42C22.0081 37.5933 22.1548 36.7733 22.4481 35.96C22.7415 35.1467 23.1881 34.42 23.7881 33.78C24.3881 33.1267 25.1415 32.6 26.0481 32.2C26.9548 31.8 28.0215 31.6 29.2481 31.6C29.6881 31.6 30.0815 31.64 30.4281 31.72C30.7881 31.8 31.1081 31.88 31.3881 31.96C31.5881 32.0267 31.7681 32.08 31.9281 32.12C32.1015 32.1467 32.2681 32.16 32.4281 32.16V34.38H32.2281C32.1481 33.9667 32.0015 33.6267 31.7881 33.36C31.5748 33.08 31.3215 32.8667 31.0281 32.72C30.7481 32.5733 30.4415 32.4733 30.1081 32.42C29.7881 32.3533 29.4748 32.32 29.1681 32.32ZM43.7691 44.8H43.8691C43.9624 44.8 44.0491 44.7667 44.1291 44.7C44.2091 44.62 44.2757 44.5267 44.3291 44.42C44.3957 44.3 44.4424 44.18 44.4691 44.06C44.4957 43.9267 44.5091 43.8067 44.5091 43.7V38.26H38.1091V43.7C38.1091 43.8067 38.1224 43.9267 38.1491 44.06C38.1757 44.18 38.2157 44.2933 38.2691 44.4C38.3224 44.5067 38.3824 44.6 38.4491 44.68C38.5291 44.76 38.6224 44.8 38.7291 44.8H38.8291V45H36.0291V44.8H36.1291C36.2224 44.8 36.3091 44.7667 36.3891 44.7C36.4691 44.62 36.5357 44.5267 36.5891 44.42C36.6557 44.3 36.7024 44.18 36.7291 44.06C36.7557 43.9267 36.7691 43.8067 36.7691 43.7V33.04C36.7691 32.9467 36.7557 32.84 36.7291 32.72C36.7024 32.6 36.6624 32.4867 36.6091 32.38C36.5557 32.2733 36.4891 32.1867 36.4091 32.12C36.3291 32.04 36.2357 32 36.1291 32H36.0291V31.8H38.8291V32H38.7291C38.6224 32 38.5291 32.04 38.4491 32.12C38.3691 32.1867 38.3024 32.2733 38.2491 32.38C38.2091 32.4867 38.1757 32.6 38.1491 32.72C38.1224 32.84 38.1091 32.9467 38.1091 33.04V37.56H44.5091V33.04C44.5091 32.9467 44.4957 32.84 44.4691 32.72C44.4424 32.6 44.4024 32.4867 44.3491 32.38C44.2957 32.2733 44.2291 32.1867 44.1491 32.12C44.0691 32.04 43.9757 32 43.8691 32H43.7691V31.8H46.5691V32H46.4691C46.3624 32 46.2691 32.04 46.1891 32.12C46.1091 32.1867 46.0424 32.2733 45.9891 32.38C45.9491 32.4867 45.9157 32.6 45.8891 32.72C45.8624 32.84 45.8491 32.9467 45.8491 33.04V43.7C45.8491 43.8067 45.8624 43.9267 45.8891 44.06C45.9291 44.18 45.9757 44.2933 46.0291 44.4C46.0824 44.5067 46.1424 44.6 46.2091 44.68C46.2891 44.76 46.3757 44.8 46.4691 44.8H46.5691V45H43.7691V44.8ZM57.0705 44.8H57.1705C57.4905 44.8 57.6505 44.6533 57.6505 44.36C57.6505 44.2533 57.6305 44.14 57.5905 44.02L55.7905 39.16H52.2905L50.5505 43.94C50.5105 44.0467 50.4905 44.1467 50.4905 44.24C50.4905 44.4133 50.5371 44.5533 50.6305 44.66C50.7238 44.7533 50.8238 44.8 50.9305 44.8H51.0305V45H48.8105V44.8H48.9105C49.0838 44.8 49.2505 44.7 49.4105 44.5C49.5838 44.2867 49.7238 44.04 49.8305 43.76L54.4105 31.56L58.8905 43.64C58.9838 43.9067 59.1105 44.1667 59.2705 44.42C59.4438 44.6733 59.6638 44.8 59.9305 44.8H60.0305V45H57.0705V44.8ZM52.4905 38.48H55.5705L54.0305 34.3L52.4905 38.48ZM68.8227 44.8H68.9227C69.016 44.8 69.1027 44.76 69.1827 44.68C69.2627 44.6 69.3293 44.5067 69.3827 44.4C69.4493 44.2933 69.496 44.18 69.5227 44.06C69.5493 43.9267 69.5627 43.8067 69.5627 43.7V33.06C69.5627 32.9667 69.5493 32.86 69.5227 32.74C69.496 32.62 69.4493 32.5067 69.3827 32.4C69.3293 32.28 69.256 32.1867 69.1627 32.12C69.0827 32.04 68.9893 32 68.8827 32H68.7827V31.8H72.0627C73.3027 31.8 74.2693 32.0733 74.9627 32.62C75.6693 33.1667 76.0227 33.8933 76.0227 34.8C76.0227 35.1867 75.956 35.5333 75.8227 35.84C75.6893 36.1467 75.516 36.42 75.3027 36.66C75.1027 36.9 74.8827 37.1067 74.6427 37.28C74.4027 37.44 74.176 37.5733 73.9627 37.68C74.5227 37.7867 74.9893 37.9667 75.3627 38.22C75.736 38.4733 76.036 38.7667 76.2627 39.1C76.5027 39.42 76.6693 39.7667 76.7627 40.14C76.856 40.5133 76.9027 40.88 76.9027 41.24C76.9027 41.9333 76.776 42.52 76.5227 43C76.2693 43.4667 75.9293 43.8533 75.5027 44.16C75.0893 44.4533 74.6093 44.6667 74.0627 44.8C73.5293 44.9333 72.976 45 72.4027 45H68.8227V44.8ZM75.5427 41.36C75.436 40.3333 75.0893 39.54 74.5027 38.98C73.916 38.42 73.0893 38.14 72.0227 38.14H70.9027V44.34H72.0627C73.1427 44.34 73.9893 44.1 74.6027 43.62C75.2293 43.1267 75.5427 42.4467 75.5427 41.58V41.36ZM74.7227 34.98C74.6827 34.2067 74.4093 33.5933 73.9027 33.14C73.4093 32.6867 72.7427 32.46 71.9027 32.46H70.9027V37.5H71.9427C72.5027 37.5 72.956 37.4267 73.3027 37.28C73.6627 37.1333 73.9493 36.9467 74.1627 36.72C74.376 36.48 74.5227 36.22 74.6027 35.94C74.6827 35.66 74.7227 35.3867 74.7227 35.12V34.98ZM86.1447 32.32C85.158 32.32 84.298 32.5 83.5647 32.86C82.8447 33.2067 82.2447 33.6667 81.7647 34.24C81.2847 34.8 80.9247 35.4333 80.6847 36.14C80.458 36.8467 80.3447 37.5467 80.3447 38.24C80.3447 39.0267 80.498 39.8 80.8047 40.56C81.1114 41.3067 81.5314 41.9733 82.0647 42.56C82.6114 43.1333 83.2447 43.6 83.9647 43.96C84.6847 44.3067 85.4647 44.48 86.3047 44.48C86.5447 44.48 86.8247 44.4533 87.1447 44.4C87.478 44.3467 87.8047 44.2467 88.1247 44.1C88.4447 43.94 88.738 43.72 89.0047 43.44C89.2847 43.16 89.498 42.7933 89.6447 42.34H89.8447V44.56C89.6447 44.56 89.4314 44.5867 89.2047 44.64C88.9914 44.6933 88.7514 44.7533 88.4847 44.82C88.138 44.9133 87.7514 45 87.3247 45.08C86.9114 45.16 86.4714 45.2 86.0047 45.2C84.8447 45.2 83.8247 45 82.9447 44.6C82.0647 44.2 81.3314 43.68 80.7447 43.04C80.158 42.4 79.718 41.68 79.4247 40.88C79.1314 40.0667 78.9847 39.2467 78.9847 38.42C78.9847 37.5933 79.1314 36.7733 79.4247 35.96C79.718 35.1467 80.1647 34.42 80.7647 33.78C81.3647 33.1267 82.118 32.6 83.0247 32.2C83.9314 31.8 84.998 31.6 86.2247 31.6C86.6647 31.6 87.058 31.64 87.4047 31.72C87.7647 31.8 88.0847 31.88 88.3647 31.96C88.5647 32.0267 88.7447 32.08 88.9047 32.12C89.078 32.1467 89.2447 32.16 89.4047 32.16V34.38H89.2047C89.1247 33.9667 88.978 33.6267 88.7647 33.36C88.5514 33.08 88.298 32.8667 88.0047 32.72C87.7247 32.5733 87.418 32.4733 87.0847 32.42C86.7647 32.3533 86.4514 32.32 86.1447 32.32ZM92.7656 44.8H92.8656C92.9723 44.8 93.0656 44.7667 93.1456 44.7C93.2256 44.62 93.2923 44.5267 93.3456 44.42C93.4123 44.3133 93.459 44.2 93.4856 44.08C93.5256 43.96 93.5456 43.8467 93.5456 43.74V33.04C93.5456 32.9467 93.5256 32.84 93.4856 32.72C93.459 32.6 93.4123 32.4867 93.3456 32.38C93.2923 32.2733 93.2256 32.1867 93.1456 32.12C93.0656 32.04 92.9723 32 92.8656 32H92.7656V31.8H100.466V33.66H100.266C100.239 33.3533 100.119 33.0867 99.9056 32.86C99.6923 32.62 99.359 32.5 98.9056 32.5H94.8856V37.56H98.2056C98.5123 37.56 98.7656 37.4667 98.9656 37.28C99.179 37.0933 99.2856 36.8733 99.2856 36.62H99.4856V39.12H99.2856C99.2856 38.88 99.1856 38.6733 98.9856 38.5C98.7856 38.3267 98.5256 38.24 98.2056 38.24H94.8856V44.3H99.2656C99.519 44.3 99.739 44.24 99.9256 44.12C100.112 44 100.266 43.86 100.386 43.7C100.519 43.5267 100.612 43.3467 100.666 43.16C100.732 42.96 100.766 42.7933 100.766 42.66H100.966V45H92.7656V44.8ZM106.453 44.8H106.553V45H103.673V44.8H103.773C103.879 44.8 103.973 44.7667 104.053 44.7C104.133 44.62 104.199 44.5267 104.253 44.42C104.319 44.3133 104.366 44.2 104.393 44.08C104.419 43.96 104.433 43.8467 104.433 43.74V33.04C104.433 32.9467 104.419 32.84 104.393 32.72C104.366 32.6 104.319 32.4867 104.253 32.38C104.199 32.2733 104.133 32.1867 104.053 32.12C103.973 32.04 103.879 32 103.773 32H103.673V31.8H111.373V33.92H111.173C111.173 33.44 111.066 33.0867 110.853 32.86C110.653 32.62 110.333 32.5 109.893 32.5H105.793V43.74C105.793 43.8467 105.806 43.96 105.833 44.08C105.859 44.2 105.899 44.3133 105.953 44.42C106.019 44.5267 106.093 44.62 106.173 44.7C106.253 44.7667 106.346 44.8 106.453 44.8ZM122.622 44.3V46.8H122.422C122.409 46.6267 122.362 46.4333 122.282 46.22C122.202 46.0067 122.089 45.8067 121.942 45.62C121.809 45.4467 121.649 45.3 121.462 45.18C121.275 45.06 121.069 45 120.842 45H111.622C111.395 45 111.189 45.06 111.002 45.18C110.815 45.3133 110.649 45.4667 110.502 45.64C110.369 45.8267 110.255 46.0267 110.162 46.24C110.082 46.4533 110.035 46.64 110.022 46.8H109.822V44.3H110.702C111.129 44.3 111.429 44.0533 111.602 43.56L116.202 31.5L120.842 43.5C120.935 43.7 121.062 43.8867 121.222 44.06C121.382 44.22 121.569 44.3 121.782 44.3H122.622ZM112.042 44.3H119.742L115.882 34.36L112.042 44.3ZM133.088 44.8H133.188C133.508 44.8 133.668 44.6533 133.668 44.36C133.668 44.2533 133.648 44.14 133.608 44.02L131.808 39.16H128.308L126.568 43.94C126.528 44.0467 126.508 44.1467 126.508 44.24C126.508 44.4133 126.554 44.5533 126.648 44.66C126.741 44.7533 126.841 44.8 126.948 44.8H127.048V45H124.828V44.8H124.928C125.101 44.8 125.268 44.7 125.428 44.5C125.601 44.2867 125.741 44.04 125.848 43.76L130.428 31.56L134.908 43.64C135.001 43.9067 135.128 44.1667 135.288 44.42C135.461 44.6733 135.681 44.8 135.948 44.8H136.048V45H133.088V44.8ZM128.508 38.48H131.588L130.048 34.3L128.508 38.48Z" fill="white"/>
<path d="M72.7534 12C72.7534 14.3296 71.6198 16.4742 70.4418 18.0666C69.857 18.8573 69.2713 19.498 68.8322 19.9406C68.6794 20.0947 68.5446 20.2245 68.4342 20.3278C68.3239 20.2245 68.1891 20.0947 68.0362 19.9406C67.5971 19.498 67.0115 18.8573 66.4266 18.0666C65.2486 16.4742 64.115 14.3296 64.115 12C64.115 9.67044 65.2486 7.52577 66.4266 5.93339C67.0115 5.14273 67.5971 4.502 68.0362 4.0594C68.1891 3.90528 68.3239 3.77552 68.4342 3.67218C68.5446 3.77552 68.6794 3.90528 68.8322 4.0594C69.2713 4.502 69.857 5.14273 70.4418 5.93339C71.6198 7.52577 72.7534 9.67044 72.7534 12Z" stroke="white"/>
<path d="M66.5571 11.7794C68.018 13.4467 68.5896 15.8775 68.7815 17.9616C68.8766 18.9945 68.8764 19.9202 68.8523 20.5874C68.843 20.8431 68.8303 21.0602 68.8182 21.23C68.6694 21.2438 68.4792 21.2584 68.2551 21.2689C67.6705 21.2964 66.8593 21.2967 65.9543 21.1882C64.1282 20.9692 61.9983 20.3167 60.5374 18.6495C59.0765 16.9822 58.5048 14.5515 58.3129 12.4674C58.2179 11.4345 58.2181 10.5088 58.2422 9.84152C58.2514 9.58577 58.2642 9.36869 58.2763 9.1989C58.425 9.18509 58.6152 9.17057 58.8393 9.16002C59.424 9.13249 60.2351 9.13224 61.1401 9.24077C62.9663 9.45975 65.0962 10.1122 66.5571 11.7794Z" stroke="white"/>
<path d="M71.6492 11.7794C70.1883 13.4467 69.6167 15.8775 69.4248 17.9616C69.3297 18.9945 69.3299 19.9202 69.354 20.5874C69.3633 20.8431 69.376 21.0602 69.3881 21.23C69.5369 21.2438 69.7271 21.2584 69.9512 21.2689C70.5358 21.2964 71.347 21.2967 72.252 21.1882C74.0781 20.9692 76.208 20.3167 77.6689 18.6495C79.1298 16.9822 79.7015 14.5515 79.8934 12.4674C79.9884 11.4345 79.9882 10.5088 79.9641 9.84152C79.9549 9.58577 79.9421 9.36869 79.93 9.1989C79.7813 9.18509 79.5911 9.17057 79.367 9.16002C78.7823 9.13249 77.9712 9.13224 77.0662 9.24077C75.24 9.45975 73.1101 10.1122 71.6492 11.7794Z" stroke="white"/>
<path d="M47 15H2" stroke="white"/>
<path d="M136 15L90 15" stroke="white"/>
</svg>
